<?xml version="1.0" standalone="no"?>
<!DOCTYPE svg PUBLIC "-//W3C//DTD SVG 20010904//EN"
 "http://www.w3.org/TR/2001/REC-SVG-20010904/DTD/svg10.dtd">
<svg version="1.0" xmlns="http://www.w3.org/2000/svg"
 width="818.000000pt" height="1280.000000pt" viewBox="0 0 818.000000 1280.000000"
 preserveAspectRatio="xMidYMid meet">
<metadata>
Created by potrace 1.15, written by Peter Selinger 2001-2017
</metadata>
<g transform="translate(0.000000,1280.000000) scale(0.100000,-0.100000)"
fill="#000000" stroke="none">
<path d="M3620 12399 c-927 -74 -1677 -387 -2238 -934 -239 -232 -404 -456
-538 -730 -342 -700 -363 -1595 -57 -2370 291 -736 869 -1419 1715 -2030 l138
-99 -248 -126 c-1507 -769 -2157 -1676 -2119 -2954 23 -788 326 -1421 907
-1897 560 -459 1280 -722 2200 -804 96 -8 299 -18 450 -22 1200 -26 2175 237
2904 786 675 508 1051 1164 1152 2006 20 172 23 568 5 740 -105 1001 -596
1833 -1553 2634 -196 163 -492 383 -701 521 -97 63 -176 117 -176 120 -1 3 61
36 137 74 179 89 385 207 547 313 806 529 1231 1132 1350 1913 22 146 31 468
16 611 -53 500 -254 922 -612 1279 -565 565 -1398 899 -2419 970 -169 11 -708
11 -860 -1z m763 -875 c474 -77 855 -333 1101 -741 172 -286 259 -675 243
-1083 -26 -629 -253 -1169 -721 -1715 -79 -93 -238 -255 -250 -255 -15 0 -302
177 -511 315 -852 565 -1333 1084 -1514 1635 -135 412 -114 851 57 1185 199
387 595 629 1104 674 130 12 371 4 491 -15z m-793 -5958 c675 -404 1214 -816
1548 -1186 439 -485 650 -1009 629 -1565 -16 -423 -151 -753 -420 -1027 -238
-244 -533 -395 -897 -459 -147 -27 -461 -36 -621 -20 -411 43 -742 176 -1026
414 -379 319 -608 778 -664 1331 -7 74 -10 199 -6 335 8 302 39 486 132 767
158 480 437 919 909 1427 127 136 139 146 159 136 12 -7 128 -75 257 -153z"/>
</g>
</svg>
